<?xml version="1.0" encoding="utf-8"?>
<!-- Generator: Adobe Illustrator 22.0.1, SVG Export Plug-In . SVG Version: 6.00 Build 0)  -->
<svg
        version="1.1"
        id="Layer_1"
        xmlns="http://www.w3.org/2000/svg"
        xmlns:xlink="http://www.w3.org/1999/xlink"
        x="0px"
        y="0px"
        viewBox="0 0 1000 116.0519562"
        enable-background="new 0 0 1000 116.0519562"
        xml:space="preserve"
>
  <g>
    <polygon
            fill="#ffffff"
            points="99.4053497,114.0166626 61.835228,89.3297501 3.7647893,113.9428558 37.9602737,73.8067398
		0,48.8983078 59.2023964,48.8983078 99.4053497,1.7775638 99.4053497,48.8983078 156.7833252,48.8983078 99.4053497,73.3427811
		"
    />
      <g>
      <path
              fill="#ffffff"
              d="M170.6707306,24.7691135c2.0106354,0,3.6416321-1.6345367,3.6416321-3.6451778l0.0070801-15.7795038
			c0-2.0072081-1.6345367-3.6452856-3.6452789-3.6452856h-61.5223083v23.0735073L170.6707306,24.7691135z"
      />
          <path
                  fill="#ffffff"
                  d="M170.6707306,114.2303543c2.0106354,0,3.6416321-1.6345367,3.6416321-3.6451797l0.0070801-15.7760696
			c0-2.010643-1.6345367-3.6451797-3.6452789-3.6451797h-61.5223083v23.0699692L170.6707306,114.2303543z"
          />
          <path
                  fill="#ffffff"
                  d="M996.3442993,1.6569875h-76.8626099c-2.0142212,0-3.6557007,1.6416177-3.6557007,3.6557984v15.8041763
			c0,2.0141811,1.6414795,3.655798,3.6557007,3.655798h26.8734741v85.9175491c0,2.0141754,1.6414795,3.6522522,3.6557007,3.6522522
			h15.8076782c2.0142212,0,3.6522827-1.6380768,3.6522827-3.6522522V24.7727604h26.8734741
			c2.0141602,0,3.6557007-1.6416168,3.6557007-3.655798V5.3127861C1000,3.2986052,998.3584595,1.6569875,996.3442993,1.6569875"
          />
          <path
                  fill="#ffffff"
                  d="M689.9665527,26.9169579c-1.8173828-4.9599304-4.5415649-9.357317-8.0848389-13.0728664
			c-3.5327759-3.694417-7.8775024-6.6787868-12.9147949-8.8687897c-5.0547485-2.1969762-10.809021-3.3112335-17.0941162-3.3112335
			h-41.8164673c-2.0141602,0-3.6557007,1.6415104-3.6557007,3.6522584v105.2685242
			c0,2.0177231,1.6415405,3.6557999,3.6557007,3.6557999h15.7971802c2.0177612,0,3.6592407-1.6380768,3.6592407-3.6557999
			l-0.006958-26.9683151h22.3670044c6.2780151,0,12.0006714-1.0861511,17.0027466-3.2304535
			c4.9951172-2.1441956,9.3222656-5.1040039,12.8585205-8.8054962c3.5256958-3.6908798,6.2639771-8.0180016,8.1376343-12.858429
			c1.855957-4.8122139,2.7980347-10.9146156,2.7980347-16.2576256
			C692.6697388,37.0477219,691.7592773,31.8171387,689.9665527,26.9169579 M668.1761475,49.8357773
			c-0.833252,2.2005157-2.0037231,4.1303787-3.4801025,5.7297325c-1.4588013,1.5818634-3.125,2.5766182-5.118042,3.4730034
			c-1.9685059,0.882328-5.4766846,1.4131203-12.3206787,1.4131203h-17.7515259V24.7797337h23.2915039
			c2.4886475,0,4.7734985,0.4534492,6.7982788,1.3462925c2.0458374,0.9034634,3.8279419,2.1407642,5.2832642,3.6769314
			c1.4483032,1.525547,2.5730591,3.3990917,3.3499756,5.5609875c0.8049316,2.2531891,1.2162476,4.6962509,1.2162476,7.2693329
			C669.4450684,45.1747131,669.0161743,47.6001816,668.1761475,49.8357773"
          />
          <path
                  fill="#ffffff"
                  d="M532.7594604,33.9826851c-0.1019897,2.3306389,0.5025635,3.7471962,1.3884277,4.9986572
			c0.994751,1.4200935,2.4043579,2.6081581,4.1865845,3.5397263c1.9825439,1.0299416,4.3200684,1.8454399,6.9530029,2.4183922
			c2.8789063,0.6257286,5.828125,1.209301,8.7703247,1.7294731c5.3394775,0.8437119,10.6052246,1.9051895,15.6530151,3.1531105
			c5.2761841,1.3112144,9.951416,3.2690773,13.9129639,5.8316422c4.116272,2.6644783,7.388916,6.2112846,9.7370605,10.5385132
			c2.3691406,4.3658447,3.4237671,9.9268341,3.131958,16.5318222c-0.27771,6.4115601-1.9227905,11.888237-4.8860474,16.2857285
			c-2.9035645,4.3025513-6.6472168,7.8141785-11.1359863,10.440033c-4.397522,2.573082-8.7387695,4.4747314-14.1170044,5.4801025
			c-5.2727051,0.9771652-11.1746216,1.2760315-16.3314209,1.0510788c-12.798645-0.562439-31.692688-7.9091187-41.1730042-20.8800735
			c-0.7523193-1.0370178-1.6768188-2.8121948,0.35849-4.8861237c2.0353088-2.0668564,11.7758179-11.9760971,11.7758179-11.9760971
			c1.9649658-2.0740433,3.8736572-0.608139,4.6891479,0.5834656c5.543396,8.1094971,16.5880737,14.1591263,25.2670898,14.538765
			c4.562561,0.2002792,5.1075439,0.0210266,7.958252-0.3550797c2.5872192-0.3374786,4.8825684-1.0088043,7.0268555-1.9896088
			c1.9719238-0.8963852,3.6240845-2.0915298,4.9212036-3.7506332c1.2021484-1.5397034,1.9016724-3.7190857,2.0739746-6.2429276
			c0.1651611-2.4325562-0.5097046-4.3834457-1.6310425-5.954689c-1.2197876-1.7118835-2.9105225-3.0300674-4.9318237-4.0775986
			c-2.277832-1.1846313-4.8859863-1.9368362-7.7719727-2.4816818c-3.0933838-0.5764923-6.1761475-1.0932312-9.1570435-1.5221176
			c-4.9282227-0.629158-9.8424072-1.6345367-14.5703125-2.9843674c-4.8895874-1.3955307-9.2694702-3.3709869-13.0026245-5.8668289
			c-3.8841553-2.5906715-7.0197754-5.9511452-9.3115845-9.9864807c-2.3481445-4.1303787-3.4273376-8.8125763-3.1707153-14.7320747
			c0.2601318-5.9617672,1.7434998-11.1957836,4.40448-15.5721436c2.6258545-4.3307676,6.0812378-7.8916292,10.2642822-10.605238
			c4.0845947-2.6505318,8.7948608-4.5943408,13.9904175-5.7754302c10.098999-2.291914,20.2050781-1.9087305,30.2197876,1.2618668
			c10.795105,3.4167917,19.4599609,11.7055492,23.4602051,17.5723782c0.7310791,1.079071,1.4587402,2.7804394-0.1019897,4.5380211
			c-1.564209,1.7611217-11.093811,11.0867939-11.093811,11.0867939c-2.0563965,1.9650459-4.1584473,1.5080605-5.3255005-0.2109032
			c-5.8457031-8.5944901-13.3751831-12.4471359-22.1068726-13.0236282
			C543.7161255,22.0698795,533.1882324,24.1683788,532.7594604,33.9826851"
          />
          <path
                  fill="#ffffff"
                  d="M484.5032043,15.2793131c-5.2059021-4.9633636-11.3363953-8.7843647-18.2331848-11.3680649
			c-6.8439636-2.5590267-14.1836853-3.8596196-21.8045349-3.8596196c-7.5259399,0-14.8340149,1.3005929-21.7201538,3.8596196
			c-6.9460144,2.5766201-13.1326294,6.4011612-18.3807983,11.3575525
			c-5.2551575,4.9633636-9.4874268,11.1255169-12.58078,18.3104229c-3.0932617,7.1850166-4.6610718,15.4104805-4.6610718,24.4480133
			c0,9.1359024,1.5431213,17.3824997,4.5802917,24.5076599c3.0405579,7.1428528,7.2200928,13.2767944,12.4225464,18.2402649
			c5.1954041,4.9562836,11.3293457,8.7808228,18.2366333,11.364418c6.8405457,2.5625687,14.1801453,3.859726,21.8045654,3.859726
			c8.3449707,0,16.131134-1.406044,23.1438599-4.1865921c7.0584412-2.7946014,13.1994629-6.8194199,18.2542114-11.9550705
			c5.0266724-5.1075363,9.0128784-11.2907181,11.8425598-18.3807983c2.8191528-7.0653992,4.2498779-14.9534912,4.2498779-23.4496078
			c0-9.0304527-1.5712585-17.2594566-4.6611633-24.4480133C493.9028015,26.3943176,489.6986084,20.2392445,484.5032043,15.2793131
			 M475.2829895,73.6239471c-1.7717285,4.3412781-4.2112427,8.0181046-7.2553711,10.9251251
			c-3.0441284,2.9141083-6.6225891,5.1427307-10.6369019,6.6225739c-4.0774841,1.5009842-8.4925537,2.2638092-13.1221008,2.2638092
			c-4.7348633,0-9.2026062-0.762825-13.2802124-2.2638092c-3.9967346-1.4763031-7.5084534-3.6873322-10.443573-6.583847
			c-2.9562683-2.9141006-5.3570862-6.6014404-7.1357727-10.9638519c-1.7926636-4.3904114-2.6961365-9.5858154-2.6961365-15.4491005
			c0-5.8562088,0.9034729-11.0551453,2.6961365-15.4455605c1.7716064-4.3553314,4.1970825-8.039238,7.1990662-10.9498005
			c2.9878845-2.9070244,6.5452271-5.1566734,10.5735779-6.6858673c4.0706177-1.5465717,8.5243225-2.3339653,13.2451477-2.3339653
			c4.6119385,0,9.0163879,0.7873936,13.0799561,2.3339653c4.0143127,1.5256538,7.5645447,3.7928944,10.5595398,6.7456188
			c3.0089417,2.970314,5.4379272,6.6894073,7.2166443,11.044632c1.7926636,4.3939552,2.6995544,9.5402222,2.6995544,15.2909775
			C477.9825439,64.0345917,477.0756531,69.2335358,475.2829895,73.6239471"
          />
          <path
                  fill="#ffffff"
                  d="M797.9777222,15.2793131c-5.2059326-4.9633636-11.3364258-8.7843647-18.2331543-11.3680649
			c-6.8439941-2.5590267-14.1837158-3.8596196-21.8045654-3.8596196c-7.5223999,0-14.8339844,1.3005929-21.7201538,3.8596196
			c-6.9459839,2.5766201-13.1326294,6.4011612-18.3807983,11.3575525
			c-5.255127,4.9633636-9.4874268,11.1255169-12.5808105,18.3104229
			c-3.0897827,7.1850166-4.6610718,15.4104805-4.6610718,24.4480133c0,9.1359024,1.5431519,17.3824997,4.5803223,24.5076599
			c3.0405884,7.1428528,7.2200928,13.2767944,12.4225464,18.2402649c5.1954346,4.9562836,11.3293457,8.7808228,18.2366333,11.364418
			c6.8405762,2.5625687,14.1801758,3.859726,21.8045654,3.859726c8.3449707,0,16.1311646-1.406044,23.1438599-4.1865921
			c7.0584106-2.7946014,13.1994629-6.8194199,18.2542114-11.9550705
			c5.0266724-5.1075363,9.0128784-11.2907181,11.8425293-18.3807983c2.8192139-7.0653992,4.2498779-14.9534912,4.2498779-23.4496078
			c0-9.0304527-1.5678101-17.2594566-4.6611328-24.4480133C807.3773193,26.3943176,803.1731567,20.2392445,797.9777222,15.2793131
			 M788.7575073,73.6239471c-1.7717285,4.3412781-4.2112427,8.0181046-7.2553711,10.9251251
			c-3.0441284,2.9141083-6.6225586,5.1427307-10.6369019,6.6225739c-4.0775146,1.5009842-8.4925537,2.2638092-13.1220703,2.2638092
			c-4.7349243,0-9.2026367-0.762825-13.2802734-2.2638092c-3.9967041-1.4763031-7.5084229-3.6873322-10.4435425-6.583847
			c-2.9562988-2.9141006-5.3570557-6.6014404-7.1358032-10.9638519c-1.7926636-4.3904114-2.699646-9.5858154-2.699646-15.4491005
			c0-5.8562088,0.9069824-11.0551453,2.699646-15.4455605c1.7752075-4.3553314,4.1971436-8.039238,7.1990967-10.9498005
			c2.987915-2.9070244,6.5452271-5.1566734,10.5735474-6.6858673c4.0706787-1.5465717,8.524353-2.3339653,13.2451782-2.3339653
			c4.6119385,0,9.0164185,0.7873936,13.083374,2.3339653c4.0108643,1.5256538,7.5610962,3.7928944,10.5560913,6.7456188
			c3.0089722,2.970314,5.4379883,6.6894073,7.2166748,11.044632c1.7926636,4.3939552,2.699585,9.5402222,2.699585,15.2909775
			C791.4570923,64.0345917,790.5501709,69.2335358,788.7575073,73.6239471"
          />
          <path
                  fill="#ffffff"
                  d="M271.8985596,1.6625658h-15.8534241c-2.0141754,0-3.6557922,1.6416177-3.6557922,3.6557989v69.6810455
			c0,2.9703217-0.4956055,5.5716095-1.4763031,7.7403717c-0.9772644,2.1548233-2.3235626,3.9792328-4.0144196,5.4238968
			c-1.7364502,1.4904709-3.8315125,2.6504211-6.2182617,3.4449005c-2.4676208,0.8225784-6.6330872,1.2408371-9.5331421,1.2408371
			c-2.914093,0-7.3150177-0.4217987-9.835434-1.2513504c-2.4500275-0.7980194-4.5943451-1.9615097-6.3834534-3.4624939
			c-1.7225037-1.4412308-3.0863953-3.2550201-4.0565796-5.3957901c-0.9806976-2.1687622-1.4798431-4.7735901-1.4798431-7.7403717
			V5.3183646c0-2.0141811-1.6380768-3.6557989-3.6522675-3.6557989h-15.7970886
			c-2.0141907,0-3.6558075,1.6416177-3.6558075,3.6557989v70.2365112c0,6.4432144,1.205658,12.2326965,3.588974,17.2136536
			c2.3692627,4.9599304,5.6735229,9.2414627,9.8213806,12.7284088c4.1092529,3.4519806,8.9250031,6.084816,14.3101654,7.8247986
			c5.3114777,1.7118835,11.0762787,2.580162,17.1399536,2.580162c5.9617767,0,11.6773376-0.8682785,16.9888153-2.580162
			c5.3992157-1.7470627,10.1763458-4.3904114,14.1941986-7.8563309c4.0283508-3.4800873,7.2693481-7.7474518,9.6315002-12.6968765
			c2.3833313-4.9879303,3.5925293-10.7774124,3.5925293-17.2136536V5.3183646
			C275.5542603,3.3041835,273.9127502,1.6625658,271.8985596,1.6625658"
          />
          <path
                  fill="#ffffff"
                  d="M382.9868164,108.1245193l-25.6677246-31.8367386c0,0,20.7254028-7.5400925,20.7254028-33.8229256
			c0-5.4168091-0.9104614-10.6473942-2.7032166-15.547575c-1.8208618-4.9599304-4.5415649-9.357317-8.0848389-13.0728674
			c-3.5327454-3.694417-7.881012-6.6787863-12.9182739-8.8687897c-5.0547485-2.1969762-10.8056335-3.3112335-17.0941467-3.3112335
			h-41.770752c-2.0141907,0-3.6557007,1.6380776-3.6557007,3.6522584v105.2685242
			c0,2.0177231,1.64151,3.6557999,3.6557007,3.6557999h15.7550354c2.0176086,0,3.6557007-1.6380768,3.6557007-3.6557999
			l-0.0034485-85.8051147h23.3934021c2.4852295,0,4.7734985,0.4534473,6.7982788,1.3462906
			c2.0458374,0.8999252,3.8244324,2.1372261,5.2868042,3.6769333c1.4447632,1.525547,2.5695496,3.3990898,3.3428955,5.5644226
			c0.8120422,2.246212,1.2197876,4.6928177,1.2197876,7.2623558c0,2.5449753-0.4288635,4.9704437-1.2689209,7.2060394
			c-0.8330994,2.2005157-2.0036926,4.1303825-3.4801025,5.7262993c-1.4587097,1.5817604-3.125,2.5800514-5.121582,3.4764366
			c-1.9613953,0.8823318-5.4731445,1.4166641-12.3171387,1.4166641h-9.7861938c-1.9368286,0-3.4237671,1.7399864-1.9368286,4.137352
			l36.5822449,48.1190338c0.6819153,0.9561386,1.7927551,1.5326309,2.9738464,1.5326309h20.2016602
			C383.7460022,114.2445145,385.7286377,111.5096664,382.9868164,108.1245193"
          />
          <path
                  fill="#ffffff"
                  d="M917.1810913,108.1245193l-25.6677246-31.8367386c0,0,20.7253418-7.5400925,20.7253418-33.8229256
			c0-5.4168091-0.9105225-10.6473942-2.7033081-15.547575c-1.8208618-4.9599304-4.5449829-9.357317-8.0847778-13.0728674
			c-3.5327759-3.694417-7.8773804-6.6787863-12.9182129-8.8687897c-5.0547485-2.1969762-10.8057251-3.3112335-17.0941162-3.3112335
			h-41.770874c-2.0142212,0-3.6557007,1.6380776-3.6557007,3.6522584v105.2685242
			c0,2.0177231,1.6414795,3.6557999,3.6557007,3.6557999h15.755127c2.0176392,0,3.6557007-1.6380768,3.6557007-3.6557999
			l-0.003418-85.8051147h23.3932495c2.4853516,0,4.7734985,0.4534473,6.7984009,1.3462906
			c2.0457153,0.8999252,3.8243408,2.1372261,5.2832642,3.6769333c1.4447632,1.525547,2.5730591,3.3990898,3.3463135,5.5644226
			c0.8120728,2.246212,1.2199097,4.6928177,1.2199097,7.2623558c0,2.5449753-0.428833,4.9704437-1.269043,7.2060394
			c-0.8330688,2.2005157-2.0036621,4.1303825-3.4836426,5.7262993c-1.4550171,1.5817604-3.12146,2.5800514-5.118042,3.4764366
			c-1.9613647,0.8823318-5.4730835,1.4166641-12.3170166,1.4166641h-9.7861938c-1.9369507,0-3.4237671,1.7399864-1.9369507,4.137352
			l36.5822754,48.1190338c0.6820068,0.9561386,1.7927246,1.5326309,2.9738159,1.5326309h20.2016602
			C917.9401245,114.2445145,919.9227905,111.5096664,917.1810913,108.1245193"
          />
    </g>
  </g>
</svg>
