<?xml version="1.0" standalone="no"?>
<!DOCTYPE svg PUBLIC "-//W3C//DTD SVG 20010904//EN"
 "http://www.w3.org/TR/2001/REC-SVG-20010904/DTD/svg10.dtd">
<svg version="1.0" xmlns="http://www.w3.org/2000/svg"
 width="400.000000pt" height="400.000000pt" viewBox="0 0 400.000000 400.000000"
 preserveAspectRatio="xMidYMid meet">
<metadata>
Created by potrace 1.11, written by Peter Selinger 2001-2013
</metadata>
<g transform="translate(0.000000,400.000000) scale(0.100000,-0.100000)"
fill="#000000" stroke="none">
<path d="M0 2000 l0 -2000 2000 0 2000 0 0 2000 0 2000 -2000 0 -2000 0 0
-2000z m2921 1310 l30 -30 -3 -225 c-3 -218 -4 -225 -26 -247 l-23 -23 -539
-3 -540 -3 0 -99 0 -100 -300 0 -300 0 0 351 0 351 29 29 29 29 807 0 807 0
29 -30z m-715 -1272 l386 -3 -386 -164 -386 -164 0 -249 0 -248 525 0 c385 0
531 -3 550 -12 50 -22 55 -49 55 -272 0 -214 -5 -245 -44 -265 -15 -8 -252
-11 -861 -9 l-840 3 303 273 c166 150 301 276 298 280 -2 4 -103 74 -223 156
l-220 148 -69 -30 c-38 -16 -195 -84 -348 -151 -154 -66 -281 -120 -282 -118
-1 1 90 110 202 242 112 132 202 245 201 250 -2 6 -109 82 -238 170 l-234 160
381 3 380 2 230 268 229 267 3 -267 2 -268 386 -2z"/>
</g>
</svg>
